<svg xmlns="http://www.w3.org/2000/svg" xmlns:xlink="http://www.w3.org/1999/xlink" viewBox="25.320528030395508 -6.2769999504089355 373.7774658203125 196.69898986816406" width="380.0502138529882" height="200"><path d="M 57.602,181.469 C 57.320,176.720 57.602,176.732 57.602,171.996" stroke-width="5.436" stroke="black" fill="none" stroke-linecap="round"></path><path d="M 57.602,171.996 C 57.816,160.822 58.263,160.918 59.488,149.863" stroke-width="3.832" stroke="black" fill="none" stroke-linecap="round"></path><path d="M 59.488,149.863 C 61.768,136.882 61.469,136.881 64.906,124.113" stroke-width="3.312" stroke="black" fill="none" stroke-linecap="round"></path><path d="M 64.906,124.113 C 67.652,112.712 67.696,112.763 71.344,101.625" stroke-width="3.298" stroke="black" fill="none" stroke-linecap="round"></path><path d="M 71.344,101.625 C 75.502,89.647 75.341,89.619 80.285,77.926" stroke-width="3.245" stroke="black" fill="none" stroke-linecap="round"></path><path d="M 80.285,77.926 C 84.733,67.264 84.644,67.243 89.629,56.816" stroke-width="3.290" stroke="black" fill="none" stroke-linecap="round"></path><path d="M 89.629,56.816 C 93.033,50.429 92.698,50.268 96.215,43.934" stroke-width="3.723" stroke="black" fill="none" stroke-linecap="round"></path><path d="M 96.215,43.934 C 98.712,38.552 98.824,38.607 101.211,33.172" stroke-width="4.004" stroke="black" fill="none" stroke-linecap="round"></path><path d="M 101.211,33.172 C 103.147,29.067 103.122,29.056 105.035,24.941" stroke-width="4.281" stroke="black" fill="none" stroke-linecap="round"></path><path d="M 105.035,24.941 C 106.294,22.404 106.211,22.372 107.340,19.781" stroke-width="4.647" stroke="black" fill="none" stroke-linecap="round"></path><path d="M 107.340,19.781 C 108.811,12.110 108.606,16.607 109.660,13.348" stroke-width="5.063" stroke="black" fill="none" stroke-linecap="round"></path><path d="M 109.660,13.348 C 111.012,20.443 111.453,15.960 112.625,27.480" stroke-width="5.141" stroke="black" fill="none" stroke-linecap="round"></path><path d="M 112.625,27.480 C 115.166,39.388 115.342,39.336 118.320,51.133" stroke-width="3.679" stroke="black" fill="none" stroke-linecap="round"></path><path d="M 118.320,51.133 C 122.224,64.768 121.998,64.826 126.289,78.355" stroke-width="3.126" stroke="black" fill="none" stroke-linecap="round"></path><path d="M 126.289,78.355 C 129.715,89.696 129.685,89.704 133.242,101.004" stroke-width="3.256" stroke="black" fill="none" stroke-linecap="round"></path><path d="M 133.242,101.004 C 136.184,109.926 136.039,109.971 138.938,118.906" stroke-width="3.505" stroke="black" fill="none" stroke-linecap="round"></path><path d="M 138.938,118.906 C 140.573,124.610 140.677,124.579 142.227,130.309" stroke-width="3.945" stroke="black" fill="none" stroke-linecap="round"></path><path d="M 142.227,130.309 C 143.498,134.259 143.382,134.290 144.555,138.266" stroke-width="4.315" stroke="black" fill="none" stroke-linecap="round"></path><path d="M 144.555,138.266 C 145.259,141.446 145.385,141.413 146.000,144.617" stroke-width="4.576" stroke="black" fill="none" stroke-linecap="round"></path><path d="M 146.000,144.617 C 146.691,147.467 146.667,147.473 147.371,150.320" stroke-width="4.978" stroke="black" fill="none" stroke-linecap="round"></path><path d="M 147.371,150.320 C 147.989,153.207 148.055,153.190 148.727,156.063" stroke-width="5.258" stroke="black" fill="none" stroke-linecap="round"></path><path d="M 148.727,156.063 C 149.583,159.362 149.579,159.361 150.551,162.629" stroke-width="4.826" stroke="black" fill="none" stroke-linecap="round"></path><path d="M 171.383,129.773 C 167.281,130.289 167.324,130.486 163.266,131.199" stroke-width="5.531" stroke="black" fill="none" stroke-linecap="round"></path><path d="M 163.266,131.199 C 157.661,132.793 157.591,132.486 152.004,134.168" stroke-width="4.492" stroke="black" fill="none" stroke-linecap="round"></path><path d="M 152.004,134.168 C 146.753,135.309 146.784,135.437 141.512,136.488" stroke-width="4.315" stroke="black" fill="none" stroke-linecap="round"></path><path d="M 141.512,136.488 C 136.793,137.607 136.781,137.553 132.059,138.656" stroke-width="4.338" stroke="black" fill="none" stroke-linecap="round"></path><path d="M 132.059,138.656 C 128.559,139.427 128.560,139.431 125.047,140.137" stroke-width="4.532" stroke="black" fill="none" stroke-linecap="round"></path><path d="M 125.047,140.137 C 121.135,140.981 121.127,140.929 117.195,141.660" stroke-width="4.547" stroke="black" fill="none" stroke-linecap="round"></path><path d="M 117.195,141.660 C 112.377,142.755 112.360,142.494 107.496,143.164" stroke-width="4.418" stroke="black" fill="none" stroke-linecap="round"></path><path d="M 107.496,143.164 C 101.540,143.400 101.570,143.661 95.582,143.473" stroke-width="4.214" stroke="black" fill="none" stroke-linecap="round"></path><path d="M 95.582,143.473 C 88.846,143.952 88.884,143.554 82.184,143.473" stroke-width="4.062" stroke="black" fill="none" stroke-linecap="round"></path><path d="M 82.184,143.473 C 76.350,142.928 76.391,143.056 70.672,141.680" stroke-width="4.151" stroke="black" fill="none" stroke-linecap="round"></path><path d="M 70.672,141.680 C 65.093,140.207 65.051,140.444 59.586,138.504" stroke-width="4.140" stroke="black" fill="none" stroke-linecap="round"></path><path d="M 59.586,138.504 C 55.022,137.163 55.054,137.102 50.594,135.469" stroke-width="4.317" stroke="black" fill="none" stroke-linecap="round"></path><path d="M 50.594,135.469 C 46.371,134.136 46.532,133.915 42.605,132.008" stroke-width="4.429" stroke="black" fill="none" stroke-linecap="round"></path><path d="M 42.605,132.008 C 39.203,129.956 39.215,130.092 36.281,127.379" stroke-width="4.510" stroke="black" fill="none" stroke-linecap="round"></path><path d="M 36.281,127.379 C 33.684,125.666 34.200,125.543 32.598,123.184" stroke-width="4.730" stroke="black" fill="none" stroke-linecap="round"></path><path d="M 32.598,123.184 C 31.090,118.887 30.860,119.213 30.633,114.473" stroke-width="4.891" stroke="black" fill="none" stroke-linecap="round"></path><path d="M 30.633,114.473 C 30.342,109.324 30.107,109.398 30.633,104.207" stroke-width="4.431" stroke="black" fill="none" stroke-linecap="round"></path><path d="M 30.633,104.207 C 30.532,98.642 30.940,98.802 31.828,93.430" stroke-width="4.313" stroke="black" fill="none" stroke-linecap="round"></path><path d="M 31.828,93.430 C 33.348,88.452 33.056,88.493 35.680,83.910" stroke-width="4.275" stroke="black" fill="none" stroke-linecap="round"></path><path d="M 35.680,83.910 C 37.407,80.566 37.350,80.656 39.832,77.836" stroke-width="4.514" stroke="black" fill="none" stroke-linecap="round"></path><path d="M 39.832,77.836 C 42.561,74.789 42.479,74.855 45.824,72.488" stroke-width="4.521" stroke="black" fill="none" stroke-linecap="round"></path><path d="M 45.824,72.488 C 49.655,69.886 49.549,69.861 53.809,67.980" stroke-width="4.457" stroke="black" fill="none" stroke-linecap="round"></path><path d="M 53.809,67.980 C 58.472,65.833 58.419,65.865 63.352,64.445" stroke-width="4.367" stroke="black" fill="none" stroke-linecap="round"></path><path d="M 63.352,64.445 C 68.267,63.168 68.199,63.067 73.262,62.449" stroke-width="4.302" stroke="black" fill="none" stroke-linecap="round"></path><path d="M 73.262,62.449 C 78.254,61.805 78.224,61.735 83.266,61.578" stroke-width="4.330" stroke="black" fill="none" stroke-linecap="round"></path><path d="M 83.266,61.578 C 88.182,61.558 88.172,61.356 93.098,61.551" stroke-width="4.333" stroke="black" fill="none" stroke-linecap="round"></path><path d="M 93.098,61.551 C 97.597,61.431 97.594,61.544 102.090,61.551" stroke-width="4.394" stroke="black" fill="none" stroke-linecap="round"></path><path d="M 102.090,61.551 C 106.062,61.506 106.033,61.656 109.969,62.000" stroke-width="4.512" stroke="black" fill="none" stroke-linecap="round"></path><path d="M 109.969,62.000 C 114.405,62.678 114.404,62.561 118.773,63.660" stroke-width="4.470" stroke="black" fill="none" stroke-linecap="round"></path><path d="M 118.773,63.660 C 123.713,64.722 123.688,64.766 128.535,66.176" stroke-width="4.356" stroke="black" fill="none" stroke-linecap="round"></path><path d="M 128.535,66.176 C 133.433,67.704 133.436,67.654 138.219,69.523" stroke-width="4.289" stroke="black" fill="none" stroke-linecap="round"></path><path d="M 138.219,69.523 C 142.018,70.896 141.974,70.951 145.617,72.668" stroke-width="4.485" stroke="black" fill="none" stroke-linecap="round"></path><path d="M 145.617,72.668 C 148.369,74.079 148.374,74.025 150.930,75.781" stroke-width="4.661" stroke="black" fill="none" stroke-linecap="round"></path><path d="M 150.930,75.781 C 153.911,77.979 154.010,77.829 156.898,80.168" stroke-width="4.931" stroke="black" fill="none" stroke-linecap="round"></path><path d="M 155.930,76.465 C 158.760,79.684 158.719,77.895 161.508,79.324" stroke-width="5.562" stroke="black" fill="none" stroke-linecap="round"></path><path d="M 161.508,79.324 C 165.450,75.004 165.615,78.787 169.641,74.672" stroke-width="5.395" stroke="black" fill="none" stroke-linecap="round"></path><path d="M 169.641,74.672 C 174.431,75.427 173.548,74.362 177.703,78.039" stroke-width="5.360" stroke="black" fill="none" stroke-linecap="round"></path><path d="M 177.703,78.039 C 180.082,81.317 180.731,80.456 182.242,84.730" stroke-width="4.741" stroke="black" fill="none" stroke-linecap="round"></path><path d="M 182.242,84.730 C 183.965,89.562 183.596,86.870 184.730,89.145" stroke-width="5.069" stroke="black" fill="none" stroke-linecap="round"></path><path d="M 184.730,89.145 C 185.338,86.010 185.693,88.620 185.699,82.848" stroke-width="5.220" stroke="black" fill="none" stroke-linecap="round"></path><path d="M 185.699,82.848 C 184.954,76.895 186.096,79.370 186.246,75.863" stroke-width="4.818" stroke="black" fill="none" stroke-linecap="round"></path><path d="M 186.246,75.863 C 188.183,79.185 187.206,75.096 190.203,79.250" stroke-width="5.246" stroke="black" fill="none" stroke-linecap="round"></path><path d="M 190.203,79.250 C 193.016,78.238 192.189,79.314 194.258,76.121" stroke-width="5.365" stroke="black" fill="none" stroke-linecap="round"></path><path d="M 194.258,76.121 C 195.415,71.829 196.404,72.463 196.980,67.699" stroke-width="4.679" stroke="black" fill="none" stroke-linecap="round"></path><path d="M 196.980,67.699 C 197.869,62.975 197.921,65.219 199.270,62.902" stroke-width="5.039" stroke="black" fill="none" stroke-linecap="round"></path><path d="M 199.270,62.902 C 201.291,64.983 200.774,62.824 202.789,67.398" stroke-width="5.135" stroke="black" fill="none" stroke-linecap="round"></path><path d="M 202.789,67.398 C 204.731,70.789 204.832,70.694 206.352,74.324" stroke-width="4.731" stroke="black" fill="none" stroke-linecap="round"></path><path d="M 206.352,74.324 C 206.569,77.961 207.575,76.994 208.477,79.809" stroke-width="5.022" stroke="black" fill="none" stroke-linecap="round"></path><path d="M 208.477,79.809 C 211.175,80.555 210.288,81.563 213.789,81.527" stroke-width="5.362" stroke="black" fill="none" stroke-linecap="round"></path><path d="M 213.789,81.527 C 216.927,84.759 216.556,82.557 219.238,83.813" stroke-width="4.950" stroke="black" fill="none" stroke-linecap="round"></path><path d="M 219.238,83.813 C 223.820,80.532 223.443,82.091 226.820,76.191" stroke-width="4.878" stroke="black" fill="none" stroke-linecap="round"></path><path d="M 226.820,76.191 C 228.986,66.933 229.413,72.440 230.426,67.629" stroke-width="4.525" stroke="black" fill="none" stroke-linecap="round"></path><path d="M 230.426,67.629 C 232.241,73.461 232.311,68.540 233.469,79.406" stroke-width="4.861" stroke="black" fill="none" stroke-linecap="round"></path><path d="M 233.469,79.406 C 233.776,87.019 234.235,83.116 234.414,86.938" stroke-width="4.636" stroke="black" fill="none" stroke-linecap="round"></path><path d="M 234.414,86.938 C 235.373,83.024 235.090,86.851 236.098,79.070" stroke-width="5.086" stroke="black" fill="none" stroke-linecap="round"></path><path d="M 236.098,79.070 C 236.211,73.835 236.554,76.579 236.777,74.047" stroke-width="5.185" stroke="black" fill="none" stroke-linecap="round"></path><path d="M 236.777,74.047 C 237.783,77.009 237.475,74.308 238.625,80.016" stroke-width="5.157" stroke="black" fill="none" stroke-linecap="round"></path><path d="M 238.625,80.016 C 239.026,86.489 239.357,82.630 239.926,85.289" stroke-width="4.924" stroke="black" fill="none" stroke-linecap="round"></path><path d="M 239.926,85.289 C 242.820,78.014 242.519,81.831 245.609,70.699" stroke-width="5.002" stroke="black" fill="none" stroke-linecap="round"></path><path d="M 245.609,70.699 C 246.337,64.083 246.744,67.723 247.773,64.707" stroke-width="4.780" stroke="black" fill="none" stroke-linecap="round"></path><path d="M 247.773,64.707 C 250.960,69.218 250.242,65.779 253.418,74.090" stroke-width="4.983" stroke="black" fill="none" stroke-linecap="round"></path><path d="M 253.418,74.090 C 254.536,81.897 255.522,78.261 256.898,82.793" stroke-width="4.545" stroke="black" fill="none" stroke-linecap="round"></path><path d="M 256.898,82.793 C 259.800,80.327 258.767,83.502 261.879,77.301" stroke-width="5.066" stroke="black" fill="none" stroke-linecap="round"></path><path d="M 261.879,77.301 C 262.655,71.965 263.852,74.429 265.004,70.996" stroke-width="4.757" stroke="black" fill="none" stroke-linecap="round"></path><path d="M 265.004,70.996 C 268.850,71.443 267.141,70.115 270.852,73.602" stroke-width="5.015" stroke="black" fill="none" stroke-linecap="round"></path><path d="M 270.852,73.602 C 271.963,76.606 272.854,75.762 273.012,79.633" stroke-width="4.814" stroke="black" fill="none" stroke-linecap="round"></path><path d="M 273.012,79.633 C 273.415,87.184 274.389,83.610 275.703,87.609" stroke-width="5.302" stroke="black" fill="none" stroke-linecap="round"></path><path d="M 275.703,87.609 C 279.622,84.893 278.230,88.079 282.641,81.422" stroke-width="5.273" stroke="black" fill="none" stroke-linecap="round"></path><path d="M 282.641,81.422 C 284.661,75.688 285.001,78.708 286.461,75.238" stroke-width="4.790" stroke="black" fill="none" stroke-linecap="round"></path><path d="M 286.461,75.238 C 287.064,79.524 287.749,74.916 288.816,79.879" stroke-width="5.237" stroke="black" fill="none" stroke-linecap="round"></path><path d="M 288.816,79.879 C 291.484,78.392 290.871,80.295 294.074,76.781" stroke-width="5.335" stroke="black" fill="none" stroke-linecap="round"></path><path d="M 294.074,76.781 C 297.448,72.760 296.267,75.417 298.383,73.930" stroke-width="4.996" stroke="black" fill="none" stroke-linecap="round"></path><path d="M 298.383,73.930 C 299.442,78.720 300.116,76.100 299.410,83.461" stroke-width="5.091" stroke="black" fill="none" stroke-linecap="round"></path><path d="M 299.410,83.461 C 296.877,89.664 299.391,86.300 298.281,89.090" stroke-width="5.154" stroke="black" fill="none" stroke-linecap="round"></path><path d="M 298.281,89.090 C 303.923,84.258 301.916,87.604 309.488,79.340" stroke-width="4.972" stroke="black" fill="none" stroke-linecap="round"></path><path d="M 309.488,79.340 C 315.135,73.203 312.677,76.522 315.789,73.617" stroke-width="4.631" stroke="black" fill="none" stroke-linecap="round"></path><path d="M 315.789,73.617 C 314.319,77.566 316.422,74.018 312.063,80.969" stroke-width="5.200" stroke="black" fill="none" stroke-linecap="round"></path><path d="M 312.063,80.969 C 310.059,83.206 310.419,83.447 307.988,85.379" stroke-width="4.867" stroke="black" fill="none" stroke-linecap="round"></path><path d="M 311.008,86.105 C 312.218,83.867 312.336,83.949 313.664,81.793" stroke-width="5.561" stroke="black" fill="none" stroke-linecap="round"></path><path d="M 313.664,81.793 C 315.343,79.826 315.136,79.680 316.844,77.730" stroke-width="5.069" stroke="black" fill="none" stroke-linecap="round"></path><path d="M 316.844,77.730 C 318.370,75.332 318.497,75.422 319.973,72.984" stroke-width="5.145" stroke="black" fill="none" stroke-linecap="round"></path><path d="M 319.973,72.984 C 321.510,70.198 321.732,70.408 323.566,67.883" stroke-width="5.141" stroke="black" fill="none" stroke-linecap="round"></path><path d="M 323.566,67.883 C 325.339,65.810 325.299,65.932 327.551,64.453" stroke-width="5.193" stroke="black" fill="none" stroke-linecap="round"></path><path d="M 327.551,64.453 C 329.913,63.126 329.782,63.085 332.453,62.434" stroke-width="5.203" stroke="black" fill="none" stroke-linecap="round"></path><path d="M 332.453,62.434 C 335.478,61.330 335.350,61.644 338.426,61.488" stroke-width="5.273" stroke="black" fill="none" stroke-linecap="round"></path><path d="M 338.426,61.488 C 342.553,61.083 341.164,61.635 343.824,63.043" stroke-width="5.411" stroke="black" fill="none" stroke-linecap="round"></path><path d="M 343.824,63.043 C 344.384,66.985 345.620,65.812 344.559,70.945" stroke-width="5.267" stroke="black" fill="none" stroke-linecap="round"></path><path d="M 344.559,70.945 C 344.996,75.379 344.751,75.323 344.559,79.719" stroke-width="5.064" stroke="black" fill="none" stroke-linecap="round"></path><path d="M 344.559,79.719 C 343.780,83.566 344.168,83.601 342.902,87.391" stroke-width="5.032" stroke="black" fill="none" stroke-linecap="round"></path><path d="M 342.902,87.391 C 341.781,91.730 341.901,91.757 340.801,96.102" stroke-width="4.995" stroke="black" fill="none" stroke-linecap="round"></path><path d="M 340.801,96.102 C 339.888,101.235 339.662,101.179 338.664,106.289" stroke-width="4.899" stroke="black" fill="none" stroke-linecap="round"></path><path d="M 338.664,106.289 C 337.815,109.357 337.916,109.379 336.855,112.391" stroke-width="4.769" stroke="black" fill="none" stroke-linecap="round"></path><path d="M 336.855,112.391 C 336.021,115.058 336.014,115.053 335.063,117.680" stroke-width="4.798" stroke="black" fill="none" stroke-linecap="round"></path><path d="M 335.063,117.680 C 334.120,120.263 334.119,120.259 333.051,122.793" stroke-width="4.829" stroke="black" fill="none" stroke-linecap="round"></path><path d="M 333.051,122.793 C 331.698,125.807 331.765,125.835 330.352,128.824" stroke-width="4.728" stroke="black" fill="none" stroke-linecap="round"></path><path d="M 330.352,128.824 C 329.164,131.595 329.124,131.577 327.902,134.332" stroke-width="4.748" stroke="black" fill="none" stroke-linecap="round"></path><path d="M 327.902,134.332 C 326.931,136.679 326.844,136.628 325.711,138.891" stroke-width="4.851" stroke="black" fill="none" stroke-linecap="round"></path><path d="M 325.711,138.891 C 323.939,142.072 323.957,142.069 321.953,145.113" stroke-width="5.000" stroke="black" fill="none" stroke-linecap="round"></path><path d="M 321.953,145.113 C 319.964,147.899 320.083,147.978 318.000,150.703" stroke-width="5.072" stroke="black" fill="none" stroke-linecap="round"></path><path d="M 318.000,150.703 C 316.418,153.073 316.366,153.036 314.758,155.387" stroke-width="4.876" stroke="black" fill="none" stroke-linecap="round"></path><path d="M 314.758,155.387 C 312.588,158.466 312.564,158.446 310.293,161.449" stroke-width="4.683" stroke="black" fill="none" stroke-linecap="round"></path><path d="M 310.293,161.449 C 308.293,164.187 308.234,164.126 306.051,166.707" stroke-width="4.656" stroke="black" fill="none" stroke-linecap="round"></path><path d="M 306.051,166.707 C 304.303,168.957 304.200,168.787 302.105,170.648" stroke-width="4.778" stroke="black" fill="none" stroke-linecap="round"></path><path d="M 302.105,170.648 C 298.680,173.364 298.719,173.255 294.883,175.305" stroke-width="4.921" stroke="black" fill="none" stroke-linecap="round"></path><path d="M 294.883,175.305 C 291.594,178.042 292.383,176.583 289.512,177.086" stroke-width="5.196" stroke="black" fill="none" stroke-linecap="round"></path><path d="M 289.512,177.086 C 285.857,174.379 286.659,175.776 285.012,170.773" stroke-width="5.347" stroke="black" fill="none" stroke-linecap="round"></path><path d="M 285.012,170.773 C 284.821,164.324 283.607,164.780 285.012,157.887" stroke-width="4.364" stroke="black" fill="none" stroke-linecap="round"></path><path d="M 285.012,157.887 C 284.825,151.314 285.204,151.389 285.777,144.902" stroke-width="4.153" stroke="black" fill="none" stroke-linecap="round"></path><path d="M 285.777,144.902 C 287.473,137.477 286.893,137.394 289.148,130.047" stroke-width="3.961" stroke="black" fill="none" stroke-linecap="round"></path><path d="M 289.148,130.047 C 290.721,122.517 290.840,122.545 292.512,115.039" stroke-width="3.846" stroke="black" fill="none" stroke-linecap="round"></path><path d="M 292.512,115.039 C 294.333,107.650 294.284,107.640 296.273,100.293" stroke-width="3.898" stroke="black" fill="none" stroke-linecap="round"></path><path d="M 296.273,100.293 C 298.267,91.895 298.472,91.959 300.789,83.656" stroke-width="3.754" stroke="black" fill="none" stroke-linecap="round"></path><path d="M 300.789,83.656 C 304.341,71.270 304.552,71.366 308.844,59.234" stroke-width="3.318" stroke="black" fill="none" stroke-linecap="round"></path><path d="M 308.844,59.234 C 314.563,44.186 314.474,44.184 321.055,29.484" stroke-width="3.007" stroke="black" fill="none" stroke-linecap="round"></path><path d="M 321.055,29.484 C 325.636,19.644 325.434,19.567 330.586,9.996" stroke-width="3.268" stroke="black" fill="none" stroke-linecap="round"></path><path d="M 330.586,9.996 C 333.739,4.375 333.527,4.263 336.836,-1.277" stroke-width="3.776" stroke="black" fill="none" stroke-linecap="round"></path><path d="M 335.895,2.336 C 333.108,2.260 333.133,2.465 330.371,2.594" stroke-width="5.565" stroke="black" fill="none" stroke-linecap="round"></path><path d="M 330.371,2.594 C 327.377,3.187 327.349,2.963 324.375,3.742" stroke-width="4.983" stroke="black" fill="none" stroke-linecap="round"></path><path d="M 324.375,3.742 C 321.785,4.199 321.789,4.220 319.195,4.660" stroke-width="4.890" stroke="black" fill="none" stroke-linecap="round"></path><path d="M 319.195,4.660 C 316.311,4.972 316.359,5.166 313.523,5.676" stroke-width="4.819" stroke="black" fill="none" stroke-linecap="round"></path><path d="M 313.523,5.676 C 310.455,6.608 310.422,6.459 307.418,7.633" stroke-width="4.758" stroke="black" fill="none" stroke-linecap="round"></path><path d="M 307.418,7.633 C 304.702,8.561 304.699,8.550 302.012,9.559" stroke-width="4.782" stroke="black" fill="none" stroke-linecap="round"></path><path d="M 302.012,9.559 C 299.313,10.576 299.308,10.561 296.629,11.633" stroke-width="4.786" stroke="black" fill="none" stroke-linecap="round"></path><path d="M 296.629,11.633 C 293.263,12.994 293.250,12.963 289.887,14.332" stroke-width="4.679" stroke="black" fill="none" stroke-linecap="round"></path><path d="M 289.887,14.332 C 285.299,16.234 285.272,16.160 280.648,17.965" stroke-width="4.425" stroke="black" fill="none" stroke-linecap="round"></path><path d="M 280.648,17.965 C 275.795,19.625 275.842,19.753 270.973,21.371" stroke-width="4.330" stroke="black" fill="none" stroke-linecap="round"></path><path d="M 270.973,21.371 C 265.161,23.503 265.152,23.479 259.363,25.672" stroke-width="4.183" stroke="black" fill="none" stroke-linecap="round"></path><path d="M 259.363,25.672 C 252.585,28.029 252.649,28.184 245.949,30.734" stroke-width="3.996" stroke="black" fill="none" stroke-linecap="round"></path><path d="M 245.949,30.734 C 238.872,33.602 238.888,33.613 231.969,36.840" stroke-width="3.890" stroke="black" fill="none" stroke-linecap="round"></path><path d="M 231.969,36.840 C 225.137,40.122 225.112,40.055 218.430,43.641" stroke-width="3.891" stroke="black" fill="none" stroke-linecap="round"></path><path d="M 218.430,43.641 C 211.864,47.214 211.811,47.112 205.316,50.820" stroke-width="3.877" stroke="black" fill="none" stroke-linecap="round"></path><path d="M 205.316,50.820 C 198.587,54.808 198.473,54.589 191.648,58.391" stroke-width="3.835" stroke="black" fill="none" stroke-linecap="round"></path><path d="M 191.648,58.391 C 184.855,61.640 184.960,61.844 178.063,64.891" stroke-width="3.854" stroke="black" fill="none" stroke-linecap="round"></path><path d="M 178.063,64.891 C 171.786,67.724 171.855,67.861 165.648,70.832" stroke-width="3.958" stroke="black" fill="none" stroke-linecap="round"></path><path d="M 165.648,70.832 C 160.216,73.694 160.172,73.605 154.836,76.652" stroke-width="4.056" stroke="black" fill="none" stroke-linecap="round"></path><path d="M 154.836,76.652 C 149.843,79.244 149.915,79.358 145.047,82.160" stroke-width="4.175" stroke="black" fill="none" stroke-linecap="round"></path><path d="M 145.047,82.160 C 140.412,84.998 140.413,84.978 135.977,88.121" stroke-width="4.215" stroke="black" fill="none" stroke-linecap="round"></path><path d="M 135.977,88.121 C 131.248,91.769 131.097,91.557 126.418,95.277" stroke-width="4.131" stroke="black" fill="none" stroke-linecap="round"></path><path d="M 126.418,95.277 C 121.099,98.788 121.269,99.017 116.020,102.617" stroke-width="4.127" stroke="black" fill="none" stroke-linecap="round"></path><path d="M 116.020,102.617 C 111.110,106.561 110.994,106.406 106.207,110.512" stroke-width="4.088" stroke="black" fill="none" stroke-linecap="round"></path><path d="M 106.207,110.512 C 100.872,114.747 100.903,114.785 95.605,119.066" stroke-width="4.013" stroke="black" fill="none" stroke-linecap="round"></path><path d="M 95.605,119.066 C 90.741,123.209 90.666,123.118 85.797,127.254" stroke-width="4.066" stroke="black" fill="none" stroke-linecap="round"></path><path d="M 85.797,127.254 C 81.140,130.959 81.191,131.022 76.504,134.691" stroke-width="4.090" stroke="black" fill="none" stroke-linecap="round"></path><path d="M 76.504,134.691 C 71.897,138.179 72.011,138.309 67.539,141.953" stroke-width="4.166" stroke="black" fill="none" stroke-linecap="round"></path><path d="M 67.539,141.953 C 63.356,145.562 63.373,145.561 59.457,149.457" stroke-width="4.223" stroke="black" fill="none" stroke-linecap="round"></path><path d="M 59.457,149.457 C 55.592,153.445 55.533,153.377 51.895,157.582" stroke-width="4.213" stroke="black" fill="none" stroke-linecap="round"></path><path d="M 51.895,157.582 C 48.507,161.586 48.401,161.492 45.074,165.551" stroke-width="4.229" stroke="black" fill="none" stroke-linecap="round"></path><path d="M 45.074,165.551 C 42.261,168.218 42.565,168.449 40.012,171.309" stroke-width="4.492" stroke="black" fill="none" stroke-linecap="round"></path><path d="M 40.012,171.309 C 37.146,176.100 36.740,175.802 34.031,180.719" stroke-width="4.711" stroke="black" fill="none" stroke-linecap="round"></path><path d="M 34.031,180.719 C 29.746,185.362 32.388,183.156 30.496,185.422" stroke-width="4.755" stroke="black" fill="none" stroke-linecap="round"></path><path d="M 30.496,185.422 C 34.038,183.130 31.572,185.508 37.684,181.012" stroke-width="5.252" stroke="black" fill="none" stroke-linecap="round"></path><path d="M 37.684,181.012 C 45.464,175.429 45.841,176.272 54.102,171.707" stroke-width="3.990" stroke="black" fill="none" stroke-linecap="round"></path><path d="M 54.102,171.707 C 69.942,164.855 69.806,164.939 86.367,160.031" stroke-width="3.039" stroke="black" fill="none" stroke-linecap="round"></path><path d="M 86.367,160.031 C 100.960,156.603 100.713,155.818 115.645,153.633" stroke-width="2.975" stroke="black" fill="none" stroke-linecap="round"></path><path d="M 115.645,153.633 C 126.079,151.834 126.021,151.534 136.488,149.895" stroke-width="3.302" stroke="black" fill="none" stroke-linecap="round"></path><path d="M 136.488,149.895 C 145.631,148.230 145.622,148.193 154.730,146.352" stroke-width="3.504" stroke="black" fill="none" stroke-linecap="round"></path><path d="M 154.730,146.352 C 163.337,144.488 163.354,144.572 171.934,142.578" stroke-width="3.617" stroke="black" fill="none" stroke-linecap="round"></path><path d="M 171.934,142.578 C 178.294,141.246 178.275,141.169 184.605,139.715" stroke-width="3.901" stroke="black" fill="none" stroke-linecap="round"></path><path d="M 184.605,139.715 C 191.533,137.815 191.583,138.022 198.512,136.129" stroke-width="3.938" stroke="black" fill="none" stroke-linecap="round"></path><path d="M 198.512,136.129 C 206.300,133.954 206.345,134.237 214.230,132.559" stroke-width="3.825" stroke="black" fill="none" stroke-linecap="round"></path><path d="M 214.230,132.559 C 225.083,130.476 225.066,130.652 236.043,129.523" stroke-width="3.528" stroke="black" fill="none" stroke-linecap="round"></path><path d="M 236.043,129.523 C 252.376,128.333 252.333,128.108 268.730,127.824" stroke-width="3.004" stroke="black" fill="none" stroke-linecap="round"></path><path d="M 268.730,127.824 C 284.910,127.592 284.900,127.321 301.090,127.500" stroke-width="2.887" stroke="black" fill="none" stroke-linecap="round"></path><path d="M 301.090,127.500 C 313.434,127.500 313.433,127.430 325.777,127.500" stroke-width="3.138" stroke="black" fill="none" stroke-linecap="round"></path><path d="M 325.777,127.500 C 336.705,127.448 336.705,127.500 347.633,127.500" stroke-width="3.306" stroke="black" fill="none" stroke-linecap="round"></path><path d="M 347.633,127.500 C 356.901,127.209 356.879,127.544 366.125,127.691" stroke-width="3.510" stroke="black" fill="none" stroke-linecap="round"></path><path d="M 366.125,127.691 C 373.932,128.412 373.945,128.100 381.723,129.281" stroke-width="3.717" stroke="black" fill="none" stroke-linecap="round"></path><path d="M 381.723,129.281 C 387.902,130.127 387.919,129.973 394.098,130.813" stroke-width="3.987" stroke="black" fill="none" stroke-linecap="round"></path><path d="M 334.461,41.773 C 338.291,38.155 336.373,39.920 338.285,38.066" stroke-width="5.595" stroke="black" fill="none" stroke-linecap="round"></path><path d="M 338.285,38.066 C 334.899,39.382 338.279,37.981 334.438,41.426" stroke-width="5.518" stroke="black" fill="none" stroke-linecap="round"></path><path d="M 334.438,41.426 C 335.053,46.289 333.946,43.601 336.379,46.504" stroke-width="5.564" stroke="black" fill="none" stroke-linecap="round"></path><path d="M 336.379,46.504 C 338.230,42.132 337.692,46.717 339.715,42.281" stroke-width="5.529" stroke="black" fill="none" stroke-linecap="round"></path><path d="M 339.715,42.281 C 341.852,47.338 341.238,42.435 342.395,47.109" stroke-width="5.590" stroke="black" fill="none" stroke-linecap="round"></path></svg>