<svg width="86" height="129" viewBox="0 0 86 129" fill="none" xmlns="http://www.w3.org/2000/svg">
<path d="M15.4708 129L15.4708 33.5V17.7752L15.4708 16V1.6217H35.6861V129H15.4708ZM64 128.64V73C64 68.0464 63.4766 64.4768 61.5 62C59.6132 59.5232 55.6837 57 52 57C48.8554 57 45.5 57.5 43.5 58.5C41 59.5 38 63 38 63L35 67L35.5 64.5C35.5 64.5 38.5306 46.9036 47 42C52.3357 38.9108 58 38 62.5 39C69.5 41 71.1862 42.1862 76.5 47.5C81.5 52.5 83.5292 58.5291 83.5292 67.9646L83.8045 128.64H64Z" fill="black"/>
<path d="M5 1.6217C5 1.6217 4.69975 4.49753 6 7.5C7.42737 10.796 15.4708 16 15.4708 16V1.6217H5Z" fill="black"/>
</svg>
