<svg width="110" height="129" viewBox="0 0 110 129" fill="none" xmlns="http://www.w3.org/2000/svg">
<path d="M2 129V41.7115H20.9904V62.25H21.378V129H2ZM46.311 129V73.5462C46.311 69.0962 45.4067 65.8442 43.5981 63.7904C41.8756 61.6224 39.4211 60.5385 36.2345 60.5385C33.4785 60.5385 30.9378 61.3942 28.6124 63.1058C26.3732 64.7032 24.6077 67.0423 23.3158 70.1231C22.0239 73.0897 21.378 76.6269 21.378 80.7346L19.6082 53.5717C21.378 50.1431 21.7436 49.0105 25.7914 45.2451C29.9254 41.3656 34.2901 40 40.0604 40C46.9504 40 54.8206 44.0289 58.6101 49.1635C62.4857 54.2981 65.689 59.2833 65.689 67.0423V129H46.311ZM90.622 129V73.5462C90.622 69.0962 89.7177 65.8442 87.9091 63.7904C86.1866 61.6224 82.8011 59.1692 79.6145 59.1692C76.8586 59.1692 74.3179 60.025 71.9925 61.7365C69.7533 63.334 67.9877 65.6731 66.6959 68.7539C65.404 71.7205 65.689 76.6269 65.689 80.7346L59.0857 59.4492C61.2388 53.0594 64.3783 49.9901 68.5984 46.2247C72.9046 42.3452 77.7899 40.3472 83.8187 40.3472C90.967 40.3472 99.0545 43.8007 102.844 49.1635C106.72 54.4122 110 60.1962 110 68.7539V129H90.622Z" fill="black"/>
</svg>
