<svg width="71" height="129" viewBox="0 0 71 129" fill="none" xmlns="http://www.w3.org/2000/svg">
<path d="M37.4847 129C26.4376 129 18.0855 125.265 11.5755 120.228C5.06559 115.192 2.51079 109.705 1 98.462H20.6403C21.1335 102.267 22.3122 105.638 25.1727 107.652C28.1317 109.555 29.5835 111.038 36.7554 111.038C41.3913 111.038 46.2668 109.107 48.3381 107.652C50.5081 106.085 50.8006 103.773 50.8006 100.975C50.8006 98.8483 49.6204 97.1627 48.3381 96.0435C46.3237 94.2853 44.0391 92.9574 40.7842 92.1739L29.2014 89.7554C11.5755 85.4022 13.0863 83.9511 8.55396 80.0815C4.31263 75.7167 3.01439 70.9467 3.01439 64.1196C3.01439 55.8375 6.71044 49.156 12.3327 44.5673C17.9549 39.8666 25.6874 38 35.7482 38C41.417 38 45.9627 38.584 50.3525 39.9348C53.6772 40.9579 56.3957 42.3533 59.4173 44.288C62.682 47.0789 64.9568 49.125 66.9712 52.9946C68.482 55.8967 69.9928 58.3152 70.4964 63.6359H50.8561C49.8489 59.7663 47.1802 58.3191 44.813 56.8641C42.4457 55.2973 40.5918 54.9293 36.2518 54.9293C32.3064 54.9293 29.0123 55.5948 27.1871 57.3478C26.1799 58.3152 24.1655 59.7663 24.1655 63.6359C24.1655 65.6504 25.1053 68.2091 26.6835 69.4402C28.2616 70.5594 30.5879 71.9307 34.2374 72.8261L46.3237 75.2446C53.9187 77.0353 62.6208 80.9614 66.4676 85.8859C70.4131 90.6984 71 94.3715 71 100.975C71 109.369 68.2583 115.044 62.4389 119.745C56.718 124.333 48.0387 129 37.4847 129Z" fill="black"/>
</svg>
