<svg width="79" height="25" viewBox="0 0 79 25" fill="none" xmlns="http://www.w3.org/2000/svg">
<path d="M5.90625 24.375C4.79167 24.375 3.80729 24.1667 2.95312 23.75C2.10938 23.3333 1.44792 22.75 0.96875 22C0.5 21.25 0.265625 20.3802 0.265625 19.3906C0.265625 18.3177 0.578125 17.3594 1.20312 16.5156C1.82812 15.6615 2.77083 14.9896 4.03125 14.5C5.30208 14 6.90104 13.75 8.82812 13.75H11.5312L11.25 14.0625V13.125C11.25 11.8438 10.9948 10.8646 10.4844 10.1875C9.98438 9.51042 9.14583 9.17188 7.96875 9.17188C6.84375 9.17188 5.97917 9.46354 5.375 10.0469C4.78125 10.6198 4.45833 11.4062 4.40625 12.4062L0.96875 11.6875C1.08333 10.7812 1.44271 9.95312 2.04688 9.20312C2.65104 8.45312 3.46875 7.85417 4.5 7.40625C5.54167 6.95833 6.76562 6.73438 8.17188 6.73438C9.56771 6.73438 10.7188 6.98958 11.625 7.5C12.5312 8 13.2031 8.75 13.6406 9.75C14.0885 10.7396 14.3125 11.974 14.3125 13.4531V20.625C14.3125 20.9688 14.3594 21.1979 14.4531 21.3125C14.5573 21.4271 14.7708 21.4844 15.0938 21.4844H16V24H14.1719C13.3281 24 12.6458 23.7552 12.125 23.2656C11.6042 22.776 11.3438 22.1302 11.3438 21.3281V20.25L11.8438 20.3281C11.6875 20.776 11.4583 21.2344 11.1562 21.7031C10.8646 22.1719 10.4792 22.6094 10 23.0156C9.53125 23.4219 8.95833 23.75 8.28125 24C7.60417 24.25 6.8125 24.375 5.90625 24.375ZM6.70312 21.9219C7.52604 21.9219 8.28125 21.724 8.96875 21.3281C9.66667 20.9219 10.224 20.2969 10.6406 19.4531C11.0573 18.6094 11.2656 17.5208 11.2656 16.1875V15.9844H8.8125C7.5 15.9844 6.46875 16.1562 5.71875 16.5C4.96875 16.8438 4.4375 17.2708 4.125 17.7812C3.82292 18.2812 3.67188 18.776 3.67188 19.2656C3.67188 19.7448 3.77604 20.1875 3.98438 20.5938C4.20312 20.9896 4.53646 21.3125 4.98438 21.5625C5.43229 21.8021 6.00521 21.9219 6.70312 21.9219ZM26.4469 24.3906C25.301 24.3906 24.2021 24.1094 23.15 23.5469C22.0979 22.9844 21.2854 22.0521 20.7125 20.75L20.8844 20.6406V24H17.8844V0.5625H21.0562V10.6094L20.8062 10.3594C21.2958 9.13021 22.0615 8.21875 23.1031 7.625C24.1448 7.03125 25.2646 6.73438 26.4625 6.73438C27.8479 6.73438 29.0615 7.09375 30.1031 7.8125C31.1448 8.53125 31.9521 9.55208 32.525 10.875C33.1083 12.1979 33.4 13.7656 33.4 15.5781C33.4 17.401 33.1083 18.974 32.525 20.2969C31.9417 21.6094 31.1292 22.6198 30.0875 23.3281C29.0458 24.0365 27.8323 24.3906 26.4469 24.3906ZM25.4625 21.8281C26.7958 21.8281 27.8792 21.2812 28.7125 20.1875C29.5458 19.0938 29.9625 17.5365 29.9625 15.5156C29.9625 13.5469 29.5562 12.0156 28.7437 10.9219C27.9417 9.82812 26.8583 9.28125 25.4937 9.28125C24.6708 9.28125 23.9104 9.50521 23.2125 9.95312C22.525 10.3906 21.9729 11.0677 21.5562 11.9844C21.15 12.901 20.9469 14.0781 20.9469 15.5156C20.9469 17.651 21.3844 19.2396 22.2594 20.2812C23.1448 21.3125 24.2125 21.8281 25.4625 21.8281ZM43.4094 24.3906C41.7948 24.3906 40.3677 24.0156 39.1281 23.2656C37.899 22.5156 36.9406 21.4792 36.2531 20.1562C35.5656 18.8333 35.2219 17.3021 35.2219 15.5625C35.2219 13.8229 35.5656 12.2917 36.2531 10.9688C36.9406 9.64583 37.899 8.60938 39.1281 7.85938C40.3677 7.10938 41.7948 6.73438 43.4094 6.73438C45.024 6.73438 46.4458 7.10938 47.675 7.85938C48.9146 8.60938 49.8781 9.64583 50.5656 10.9688C51.2531 12.2917 51.5969 13.8229 51.5969 15.5625C51.5969 17.3021 51.2531 18.8333 50.5656 20.1562C49.8781 21.4792 48.9146 22.5156 47.675 23.2656C46.4458 24.0156 45.024 24.3906 43.4094 24.3906ZM43.4094 21.8594C44.8885 21.8594 46.0552 21.2969 46.9094 20.1719C47.7635 19.0365 48.1906 17.5 48.1906 15.5625C48.1906 13.6146 47.7635 12.0781 46.9094 10.9531C46.0552 9.82812 44.8885 9.26562 43.4094 9.26562C41.9302 9.26562 40.7635 9.82812 39.9094 10.9531C39.0552 12.0781 38.6281 13.6146 38.6281 15.5625C38.6281 17.5 39.0552 19.0365 39.9094 20.1719C40.7635 21.2969 41.9302 21.8594 43.4094 21.8594ZM59.3094 24.3906C58.101 24.3906 57.0646 24.1146 56.2 23.5625C55.3458 23.0104 54.6896 22.2344 54.2313 21.2344C53.7833 20.224 53.5594 19.0312 53.5594 17.6562V7.125H56.7313V17.3594C56.7313 18.7344 56.9865 19.8281 57.4969 20.6406C58.0073 21.4427 58.8875 21.8438 60.1375 21.8438C61.0333 21.8438 61.8198 21.6146 62.4969 21.1562C63.1844 20.6875 63.7208 19.974 64.1063 19.0156C64.5021 18.0573 64.7 16.8438 64.7 15.375V7.125H67.8719V24H64.8563V20.0312L64.9656 20.7188C64.5073 21.7917 63.7938 22.6719 62.825 23.3594C61.8667 24.0469 60.6948 24.3906 59.3094 24.3906ZM75.2406 24C74.4073 24 73.7198 23.7552 73.1781 23.2656C72.6365 22.776 72.3656 22.1302 72.3656 21.3281V9.64062H69.725V7.125H72.3656V3.65625L75.5375 2.9375V7.125H78.8187V9.64062H75.5375V20.625C75.5375 20.9688 75.5844 21.1979 75.6781 21.3125C75.7823 21.4271 75.9958 21.4844 76.3187 21.4844H78.8969V24H75.2406Z" fill="#091423"/>
</svg>
