<svg width="69" height="25" viewBox="0 0 69 25" fill="none" xmlns="http://www.w3.org/2000/svg">
<path d="M3.26562 24V4.21875C3.26562 2.91667 3.57812 1.98438 4.20312 1.42188C4.82812 0.848958 5.86458 0.5625 7.3125 0.5625H9.75V3.07812H7.29688C6.98438 3.07812 6.76042 3.14583 6.625 3.28125C6.5 3.41667 6.4375 3.64062 6.4375 3.95312V24H3.26562ZM0.828125 9.64062V7.125H10.0625V9.64062H0.828125ZM15.7437 24.375C14.6292 24.375 13.6448 24.1667 12.7906 23.75C11.9469 23.3333 11.2854 22.75 10.8062 22C10.3375 21.25 10.1031 20.3802 10.1031 19.3906C10.1031 18.3177 10.4156 17.3594 11.0406 16.5156C11.6656 15.6615 12.6083 14.9896 13.8687 14.5C15.1396 14 16.7385 13.75 18.6656 13.75H21.3687L21.0875 14.0625V13.125C21.0875 11.8438 20.8323 10.8646 20.3219 10.1875C19.8219 9.51042 18.9833 9.17188 17.8062 9.17188C16.6812 9.17188 15.8167 9.46354 15.2125 10.0469C14.6187 10.6198 14.2958 11.4062 14.2437 12.4062L10.8062 11.6875C10.9208 10.7812 11.2802 9.95312 11.8844 9.20312C12.4885 8.45312 13.3062 7.85417 14.3375 7.40625C15.3792 6.95833 16.6031 6.73438 18.0094 6.73438C19.4052 6.73438 20.5562 6.98958 21.4625 7.5C22.3687 8 23.0406 8.75 23.4781 9.75C23.926 10.7396 24.15 11.974 24.15 13.4531V20.625C24.15 20.9688 24.1969 21.1979 24.2906 21.3125C24.3948 21.4271 24.6083 21.4844 24.9312 21.4844H25.8375V24H24.0094C23.1656 24 22.4833 23.7552 21.9625 23.2656C21.4417 22.776 21.1812 22.1302 21.1812 21.3281V20.25L21.6812 20.3281C21.525 20.776 21.2958 21.2344 20.9937 21.7031C20.7021 22.1719 20.3167 22.6094 19.8375 23.0156C19.3687 23.4219 18.7958 23.75 18.1187 24C17.4417 24.25 16.65 24.375 15.7437 24.375ZM16.5406 21.9219C17.3635 21.9219 18.1187 21.724 18.8062 21.3281C19.5042 20.9219 20.0615 20.2969 20.4781 19.4531C20.8948 18.6094 21.1031 17.5208 21.1031 16.1875V15.9844H18.65C17.3375 15.9844 16.3062 16.1562 15.5562 16.5C14.8062 16.8438 14.275 17.2708 13.9625 17.7812C13.6604 18.2812 13.5094 18.776 13.5094 19.2656C13.5094 19.7448 13.6135 20.1875 13.8219 20.5938C14.0406 20.9896 14.374 21.3125 14.8219 21.5625C15.2698 21.8021 15.8427 21.9219 16.5406 21.9219ZM34.7062 24.3906C33.0708 24.3906 31.6542 24.0312 30.4562 23.3125C29.2583 22.5938 28.3365 21.5729 27.6906 20.25C27.0448 18.9271 26.7219 17.3646 26.7219 15.5625C26.7219 13.75 27.0448 12.1875 27.6906 10.875C28.3365 9.55208 29.2531 8.53125 30.4406 7.8125C31.6385 7.09375 33.0552 6.73438 34.6906 6.73438C35.9198 6.73438 37.0292 6.95833 38.0187 7.40625C39.0083 7.85417 39.8469 8.50521 40.5344 9.35938C41.2323 10.2031 41.7323 11.2292 42.0344 12.4375L38.8937 13.2031C38.6125 11.9219 38.1125 10.9479 37.3937 10.2812C36.6854 9.60417 35.7844 9.26562 34.6906 9.26562C33.2115 9.26562 32.0812 9.82292 31.3 10.9375C30.5292 12.0417 30.1437 13.5885 30.1437 15.5781C30.1437 17.5677 30.5292 19.1146 31.3 20.2188C32.0812 21.3125 33.2115 21.8594 34.6906 21.8594C35.774 21.8594 36.6698 21.5417 37.3781 20.9062C38.0969 20.2604 38.6021 19.3177 38.8937 18.0781L41.9875 18.8281C41.7479 19.7344 41.399 20.5312 40.9406 21.2188C40.4823 21.9062 39.9354 22.4844 39.3 22.9531C38.675 23.4219 37.9719 23.776 37.1906 24.0156C36.4198 24.2656 35.5917 24.3906 34.7062 24.3906ZM51.1063 24.3906C49.4813 24.3906 48.0646 24.0312 46.8563 23.3125C45.6479 22.5833 44.7052 21.5625 44.0281 20.25C43.3615 18.9271 43.0281 17.3646 43.0281 15.5625C43.0281 13.7604 43.3615 12.2031 44.0281 10.8906C44.6948 9.56771 45.6271 8.54688 46.825 7.82812C48.0229 7.09896 49.4188 6.73438 51.0125 6.73438C51.9188 6.73438 52.8302 6.88021 53.7469 7.17188C54.6635 7.45312 55.5021 7.94792 56.2625 8.65625C57.0229 9.36458 57.6323 10.3385 58.0906 11.5781C58.549 12.8073 58.7781 14.3698 58.7781 16.2656H45.075V14H55.9969L55.3094 14.9375C55.2573 13.5625 55.0281 12.4583 54.6219 11.625C54.226 10.7812 53.7052 10.1719 53.0594 9.79688C52.424 9.41146 51.7208 9.21875 50.95 9.21875C50.0021 9.21875 49.1896 9.47396 48.5125 9.98438C47.8458 10.4844 47.3354 11.2083 46.9813 12.1562C46.6271 13.1042 46.45 14.25 46.45 15.5938C46.45 17.5729 46.8458 19.1146 47.6375 20.2188C48.4396 21.3125 49.5906 21.8594 51.0906 21.8594C52.1531 21.8594 53.049 21.5938 53.7781 21.0625C54.5073 20.5208 55.049 19.7344 55.4031 18.7031L58.4188 19.625C58.0125 20.6562 57.4552 21.526 56.7469 22.2344C56.0385 22.9427 55.2052 23.4792 54.2469 23.8438C53.2885 24.2083 52.2417 24.3906 51.1063 24.3906ZM64.4906 24C63.6573 24 62.9698 23.7552 62.4281 23.2656C61.8865 22.776 61.6156 22.1302 61.6156 21.3281V9.64062H58.975V7.125H61.6156V3.65625L64.7875 2.9375V7.125H68.0687V9.64062H64.7875V20.625C64.7875 20.9688 64.8344 21.1979 64.9281 21.3125C65.0323 21.4271 65.2458 21.4844 65.5687 21.4844H68.1469V24H64.4906Z" fill="#091423"/>
</svg>
